<svg xmlns="http://www.w3.org/2000/svg" xmlns:xlink="http://www.w3.org/1999/xlink" viewBox="0 0 48 48"><defs><linearGradient id="r9dz4A46l7cHe1ywSoGa_b" x1="13.5" x2="13.5" y1="7" y2="41" gradientTransform="matrix(1.03 0 0 1 10.091 0)" gradientUnits="userSpaceOnUse"><stop offset="0" stop-color="#ff8a8a"/><stop offset="1" stop-color="#db0d0d"/></linearGradient><linearGradient id="r9dz4A46l7cHe1ywSoGa_a" x1="-3" x2="30" y1="24" y2="24" gradientTransform="matrix(1.03 0 0 1 10.091 0)" gradientUnits="userSpaceOnUse"><stop offset="0" stop-color="#f36f6e" stop-opacity="0"/><stop offset=".399" stop-color="#f26e6d" stop-opacity=".01"/><stop offset=".543" stop-color="#f06a69" stop-opacity=".048"/><stop offset=".646" stop-color="#ec6362" stop-opacity=".113"/><stop offset=".728" stop-color="#e65857" stop-opacity=".207"/><stop offset=".799" stop-color="#df4b4a" stop-opacity=".328"/><stop offset=".862" stop-color="#d53a39" stop-opacity=".478"/><stop offset=".919" stop-color="#ca2726" stop-opacity=".657"/><stop offset=".97" stop-color="#be1110" stop-opacity=".858"/><stop offset="1" stop-color="#b50100"/></linearGradient><linearGradient id="r9dz4A46l7cHe1ywSoGa_c" x1="-1257" x2="-1224" y1="-452" y2="-452" gradientTransform="matrix(1.03 0 0 1 1302.091 476)" xlink:href="#r9dz4A46l7cHe1ywSoGa_a"/><linearGradient id="r9dz4A46l7cHe1ywSoGa_d" x1="-795" x2="-762" y1="-1744" y2="-1744" gradientTransform="matrix(1.03 0 0 1 826.091 1768)" xlink:href="#r9dz4A46l7cHe1ywSoGa_a"/><linearGradient id="r9dz4A46l7cHe1ywSoGa_e" x1="459" x2="492" y1="-1268" y2="-1268" gradientTransform="matrix(1.03 0 0 1 -465.909 1292)" xlink:href="#r9dz4A46l7cHe1ywSoGa_a"/><linearGradient id="r9dz4A46l7cHe1ywSoGa_f" x1="24" x2="24" y1="13.063" y2="34.938" gradientUnits="userSpaceOnUse"><stop offset="0" stop-color="#fff"/><stop offset=".37" stop-color="#fcfcfd"/><stop offset=".654" stop-color="#f2f2f6"/><stop offset=".909" stop-color="#e2e2eb"/><stop offset="1" stop-color="#dadae6"/></linearGradient></defs><g data-name="cross mark button"><rect width="34" height="34" x="7" y="7" fill="url(#r9dz4A46l7cHe1ywSoGa_b)" rx="3"/><g opacity=".6"><rect width="34" height="34" x="7" y="7" fill="url(#r9dz4A46l7cHe1ywSoGa_a)" rx="3"/><rect width="34" height="34" x="7" y="7" fill="url(#r9dz4A46l7cHe1ywSoGa_c)" rx="3" transform="rotate(-90 24 24)"/><rect width="34" height="34" x="7" y="7" fill="url(#r9dz4A46l7cHe1ywSoGa_d)" rx="3" transform="rotate(180 24 24)"/><rect width="34" height="34" x="7" y="7" fill="url(#r9dz4A46l7cHe1ywSoGa_e)" rx="3" transform="rotate(90 24 24)"/></g><path fill="url(#r9dz4A46l7cHe1ywSoGa_f)" d="M26.828,24l7.817-7.816a1,1,0,0,0,0-1.414L33.23,13.355a1,1,0,0,0-1.414,0L24,21.172l-7.816-7.817a1,1,0,0,0-1.414,0L13.355,14.77a1,1,0,0,0,0,1.414L21.172,24l-7.817,7.816a1,1,0,0,0,0,1.414l1.415,1.415a1,1,0,0,0,1.414,0L24,26.828l7.816,7.817a1,1,0,0,0,1.414,0l1.415-1.415a1,1,0,0,0,0-1.414Z"/></g></svg>